<?xml version="1.0" encoding="utf-8"?>
<!-- Generator: Adobe Illustrator 25.2.1, SVG Export Plug-In . SVG Version: 6.00 Build 0)  -->
<svg version="1.1" id="Calque_1" xmlns="http://www.w3.org/2000/svg" xmlns:xlink="http://www.w3.org/1999/xlink" x="0px" y="0px"
	 viewBox="0 0 841.9 595.3" style="enable-background:new 0 0 841.9 595.3;" xml:space="preserve">
<style type="text/css">
	.st0{fill:#FF6359;}
	.st1{fill:#DB0206;}
	.st2{fill:#EEC356;}
	.st3{fill:#26407A;}
	.st4{fill:#008DD2;}
</style>
<g>
	
		<rect x="133.4" y="201.6" transform="matrix(0.4532 -0.8914 0.8914 0.4532 -112.1285 251.6693)" class="st0" width="31.3" height="31.3"/>
	
		<rect x="206.5" y="371" transform="matrix(0.4532 -0.8914 0.8914 0.4532 -221.9311 404.2002)" class="st1" width="23.9" height="23.9"/>
	
		<rect x="128.7" y="278.2" transform="matrix(0.4532 -0.8914 0.8914 0.4532 -180.5822 279.3448)" class="st2" width="17.3" height="17.3"/>
	
		<rect x="196.6" y="230.4" transform="matrix(0.8172 -0.5763 0.5763 0.8172 -101.7263 164.8318)" class="st1" width="24.8" height="24.8"/>
	
		<rect x="262" y="231.9" transform="matrix(0.6654 -0.7465 0.7465 0.6654 -91.8957 290.1144)" class="st3" width="31.3" height="31.3"/>
	
		<rect x="133.3" y="339.9" transform="matrix(0.9399 -0.3414 0.3414 0.9399 -112.4189 72.2249)" class="st4" width="31.3" height="31.3"/>
	
		<rect x="262" y="326" transform="matrix(0.9399 -0.3414 0.3414 0.9399 -99.961 115.3126)" class="st0" width="31.3" height="31.3"/>
	<path class="st4" d="M193.1,269.6h41.8l0,0v63.4l0,0h-63.2l0,0V291C171.7,279.1,181.3,269.6,193.1,269.6z"/>
	
		<rect x="224" y="299.3" transform="matrix(0.4532 -0.8914 0.8914 0.4532 -148.7096 381.8452)" class="st2" width="25.7" height="25.7"/>
	<path class="st3" d="M374.4,226.6c5.4,6.2,8.2,14.5,8.2,24.9c0,10.4-2.7,18.7-8.3,24.9c-5.4,6.2-12.9,9.4-22.2,9.4
		s-16.7-3.2-22.2-9.4c-5.6-6.2-8.4-14.5-8.4-24.9c0-10.3,2.7-18.6,8.3-24.8c5.6-6.2,12.9-9.4,22.2-9.4
		C361.5,217.3,369,220.4,374.4,226.6z M337.5,233.4c-3.5,4.4-5.3,10.4-5.3,18.1c0,7.6,1.8,13.7,5.4,18.1c3.6,4.4,8.5,6.7,14.5,6.7
		c6.2,0,11.1-2.2,14.6-6.6c3.5-4.4,5.2-10.5,5.2-18.2c0-7.7-1.8-13.7-5.3-18.1c-3.5-4.4-8.4-6.6-14.6-6.6
		C345.9,226.7,341,229,337.5,233.4z"/>
	<path class="st3" d="M403.9,285h-9.7v-69.7h9.7v27.3c3.5-5.6,8.6-8.3,15.1-8.3c6.3,0,11.4,2.4,15.5,7.1c4,4.8,6,11,6,18.8
		c0,7-1.9,13-5.7,18c-3.9,5-9.1,7.5-15.6,7.5c-6.7,0-11.7-2.7-15.2-8.3v7.5H403.9z M403.9,259.7c0,5.9,1.4,10.3,4,13.3
		s5.9,4.3,9.6,4.3c3.6,0,6.8-1.6,9.3-4.6c2.5-3.2,3.7-7.1,3.7-12.1c0-5.7-1.2-10-3.7-13c-2.5-3.1-5.7-4.5-9.5-4.5
		c-3.4,0-6.5,1.4-9.2,4.2C405.3,249.7,403.9,253.9,403.9,259.7z"/>
	<path class="st3" d="M461.6,285.7c0,4.4-1.2,7.9-3.7,10.4c-2.5,2.5-6,3.7-10.5,3.7c-2.2,0-4.5-0.5-7.3-1.4v-7.8
		c2.2,1,4.2,1.5,6.3,1.5c3.6,0,5.4-2.3,5.4-6.7V234h9.6v51.7H461.6z M462.8,219.5c0,1.6-0.6,2.9-1.8,4.1c-1.2,1.1-2.6,1.7-4.3,1.7
		c-1.7,0-3.1-0.6-4.2-1.6c-1.1-1.1-1.8-2.5-1.8-4.1c0-1.6,0.6-2.9,1.7-4.1c1.1-1.1,2.6-1.7,4.3-1.7c1.7,0,3.2,0.6,4.3,1.7
		C462.1,216.4,462.8,217.8,462.8,219.5z"/>
	<path class="st3" d="M512.5,282.4c-3.6,2.2-8.5,3.2-14.6,3.2c-7.7,0-13.9-2.4-18.6-7c-4.6-4.6-6.9-10.8-6.9-18.4
		c0-8,2.2-14.3,6.3-18.9c4.2-4.5,9.5-6.8,16.1-6.8c6.3,0,11.4,2,15.2,6s5.7,9.7,5.7,17.2c0,2-0.2,4.2-0.6,6.5h-32.9
		c0.7,4.3,2.5,7.7,5.6,10c3.1,2.3,6.8,3.4,11.4,3.4c5.3,0,9.7-1.2,13.3-3.7L512.5,282.4L512.5,282.4z M495,242.4
		c-3.3,0-6.1,1.2-8.5,3.6c-2.4,2.4-3.9,5.9-4.4,10.4h24.1v-1.8c-0.1-3.7-1.1-6.7-3.1-9C501.4,243.5,498.6,242.4,495,242.4z"/>
	<path class="st3" d="M562.3,283.1c-3.2,1.9-7.4,2.9-12.4,2.9c-7.8,0-14.1-2.5-18.7-7.4c-4.6-5-7-11.1-7-18.5c0-7.1,2.4-13.3,7-18.4
		s11.1-7.6,19-7.6c4.3,0,8.3,0.9,11.9,2.7v8.8c-3.2-2-6.9-3.1-11-3.1c-5.2,0-9.4,1.7-12.5,5c-3.2,3.3-4.6,7.5-4.6,12.6
		c0.1,5.1,1.7,9.2,4.6,12.5c2.9,3.3,7.1,4.9,12.5,4.9c4,0,7.6-1.1,11-3.3v8.7H562.3z"/>
	<path class="st3" d="M599.7,283.7c-2.2,1.1-4.9,1.8-7.9,1.8c-10.3,0-15.5-5.2-15.5-15.6v-27.4h-7.8V235h7.8v-12.2h9.7V235h13.1v7.5
		H586V270c0,4.8,2.3,7.3,6.9,7.3c2.7,0,5-0.7,6.8-2.2V283.7z"/>
	<path class="st3" d="M621.7,219.7c0,1.7-0.6,3.1-1.8,4.2c-1.2,1.1-2.6,1.8-4.3,1.8c-1.7,0-3.2-0.6-4.3-1.7
		c-1.1-1.1-1.7-2.6-1.7-4.3s0.6-3.2,1.7-4.3c1.1-1.1,2.6-1.8,4.3-1.8c1.7,0,3.2,0.6,4.3,1.8S621.7,218,621.7,219.7z M620.5,285h-9.7
		v-50h9.7V285z"/>
	<path class="st3" d="M658.9,242.5h-10.5V285h-9.6v-42.5h-7.9V235h7.9v-3.9c0-5.2,1.4-9.3,4.2-12.2s6.7-4.5,11.8-4.5
		c1.8,0,3.7,0.2,5.7,0.8v8.5c-1.5-0.7-3.1-1-4.8-1c-4.8,0-7.3,2.8-7.3,8.6v3.7h10.5V242.5z"/>
	<path class="st3" d="M372.4,370.7c-4.1,2.7-9.7,4.1-17,4.1c-10,0-18-3.1-24.4-9.3s-9.5-14.5-9.5-24.8c0-10.1,3.2-18.2,9.5-24.6
		c6.3-6.3,14.4-9.5,24.1-9.5c7.1,0,12.8,1.2,17.1,3.6v10c-2.9-1.6-5.6-2.7-7.8-3.3c-2.4-0.7-5.3-0.9-9-0.9c-6.7,0-12.1,2.3-16.7,6.8
		c-4.4,4.5-6.7,10.4-6.7,17.9c0,7.6,2.2,13.6,6.6,18c4.4,4.4,10.2,6.7,17.5,6.7c6.3,0,11.8-1.6,16.1-5v10.3H372.4z"/>
	<path class="st3" d="M424.9,373.8h-9.7v-31.5c0-3.4-0.9-6.1-2.6-7.9c-1.7-1.9-4.1-2.8-6.8-2.8c-3.3,0-6.2,1.2-8.7,3.7
		s-3.9,6.3-3.9,11.4v27.1h-9.6v-69.7h9.6v28.3c2.8-6.2,7.9-9.3,15.5-9.3c4.9,0,8.7,1.5,11.8,4.5c2.9,3.1,4.4,7.3,4.4,12.6V373.8z"/>
	<path class="st3" d="M476.4,330.4c4.2,4.9,6.2,11,6.2,18.5c0,7.5-2.2,13.7-6.3,18.6c-4.2,4.9-10.1,7.3-17.5,7.3
		c-7.4,0-13.1-2.4-17.3-7.3c-4.2-4.8-6.3-10.9-6.3-18.2c0-7.5,2.2-13.7,6.5-18.7c4.3-5,10.1-7.5,17.1-7.5
		C466.3,323.2,472.2,325.6,476.4,330.4z M445.1,349c0,5,1.2,9.1,3.6,12.5c2.4,3.4,5.8,5.1,10,5.1c4.4,0,7.8-1.7,10.2-5
		c2.4-3.3,3.5-7.5,3.5-12.6c0-5.2-1.1-9.4-3.4-12.8c-2.3-3.3-5.7-5-10.4-5c-4.3,0-7.6,1.7-10,5.1C446.3,339.8,445.1,344,445.1,349z"
		/>
	<path class="st0" d="M450.9,320.1h-9.5l10.5-12.6c1.8-2.2,4.4-3.4,7.3-3.4l0,0c2.8,0,5.6,1.2,7.3,3.4l10.4,12.6h-9.5l-8.3-10.1
		L450.9,320.1z"/>
	<path class="st3" d="M562.2,373.8h-9.6v-31.5c0-7.1-2.9-10.8-8.7-10.8c-2.9,0-5.4,1.2-7.7,3.9c-2.3,2.6-3.4,6.3-3.4,11.3v27.1h-9.6
		v-31.5c0-7.1-2.9-10.8-8.7-10.8c-2.8,0-5.4,1.2-7.7,3.9c-2.3,2.6-3.4,6.3-3.4,11.3v27.1h-9.6v-50h9.6v7.9c2.8-5.8,7.5-8.7,14.1-8.7
		c7.5,0,12.2,3.2,14.4,9.6c1.4-3.1,3.4-5.4,6-7.1c2.6-1.7,5.6-2.5,8.8-2.5c5.1,0,9.1,1.5,11.7,4.5c2.6,3.1,4,7.3,4,12.6L562.2,373.8
		L562.2,373.8z"/>
	<path class="st3" d="M602,368c-2.6,4.2-7,6.3-13.5,6.3c-4.8,0-8.5-1.4-11.4-4.1c-2.8-2.7-4.3-6.2-4.3-10.4c0-4.8,1.8-8.5,5.4-11.2
		c3.6-2.6,8.7-4,15.2-4h8.3v-2.8c0-3.4-0.8-6-2.5-7.7c-1.7-1.7-4.4-2.6-8.2-2.6c-5.3,0-10.2,1.5-14.5,4.4v-9.4
		c3.9-2.3,9-3.4,15.4-3.4c13,0,19.6,6.3,19.6,19v31.7H602V368L602,368z M591.5,366.7c3.2,0,5.7-0.9,7.5-2.6c1.8-1.7,2.7-4.1,2.7-6.8
		v-5.7h-7.5c-3.6,0-6.5,0.7-8.4,2.2s-2.8,3.3-2.8,5.6c0,2.3,0.7,4.1,2.2,5.4C586.6,366,588.7,366.7,591.5,366.7z"/>
	<path class="st3" d="M666.6,369.7c0,7.7-2.2,13.5-6.6,17.5c-4.4,4-10,5.9-16.8,5.9c-6.5,0-11.9-1.1-16.3-3.3V380
		c4.2,2.7,9.3,4.2,15.3,4.2c9.7,0,14.7-4.9,14.7-14.5v-5.1c-3.2,5.4-8,8-14.5,8c-5.7,0-10.5-2-14.5-6.2c-4-4.2-6-10.1-6-17.7
		c0-7.4,1.9-13.4,5.7-18.2c3.7-4.8,8.7-7.1,14.8-7.1c6.7,0,11.4,2.8,14.5,8.5V324h9.6L666.6,369.7L666.6,369.7z M632.2,348.3
		c0,5.2,1.2,9.2,3.6,11.8c2.4,2.7,5.2,4.1,8.5,4.1c3.4,0,6.3-1.4,9-4s3.9-6.3,3.9-11.2c0-5.9-1.2-10.3-3.6-13.1
		c-2.4-2.8-5.3-4.2-8.7-4.2c-3.9,0-6.9,1.5-9.2,4.5C633.3,339.3,632.2,343.4,632.2,348.3z"/>
	<path class="st3" d="M716.9,371.2c-3.6,2.2-8.5,3.2-14.6,3.2c-7.7,0-13.9-2.4-18.6-7c-4.6-4.6-6.9-10.8-6.9-18.4
		c0-8,2.2-14.3,6.3-18.9c4.2-4.5,9.5-6.8,16.1-6.8c6.3,0,11.4,2,15.2,6c3.7,4,5.7,9.7,5.7,17.2c0,2-0.2,4.2-0.6,6.5h-32.9
		c0.7,4.3,2.5,7.7,5.6,10s6.8,3.4,11.4,3.4c5.3,0,9.7-1.2,13.3-3.7L716.9,371.2L716.9,371.2z M699.5,331.2c-3.3,0-6.1,1.2-8.5,3.6
		c-2.4,2.4-3.9,5.9-4.4,10.4h24.1v-1.8c-0.1-3.7-1.1-6.7-3.1-9C705.8,332.4,703.1,331.2,699.5,331.2z"/>
</g>
</svg>
