<?xml version="1.0" encoding="utf-8"?>
<!-- Generator: Adobe Illustrator 25.2.1, SVG Export Plug-In . SVG Version: 6.00 Build 0)  -->
<svg version="1.1" id="Calque_1" xmlns="http://www.w3.org/2000/svg" xmlns:xlink="http://www.w3.org/1999/xlink" x="0px" y="0px"
	 viewBox="0 0 598.3 179.1" style="enable-background:new 0 0 598.3 179.1;" xml:space="preserve">
<style type="text/css">
	.st0{fill:#FF6359;}
	.st1{fill:#DB0206;}
	.st2{fill:#EEC356;}
	.st3{fill:#26407A;}
	.st4{fill:#008DD2;}
</style>
<rect x="7.4" y="4.8" transform="matrix(0.4532 -0.8914 0.8914 0.4532 -4.9234 29.0833)" class="st0" width="27.6" height="27.6"/>
<rect x="72" y="154.3" transform="matrix(0.4532 -0.8914 0.8914 0.4532 -101.8343 163.7532)" class="st1" width="21.1" height="21.1"/>
<rect x="3.3" y="72.4" transform="matrix(0.4532 -0.8914 0.8914 0.4532 -65.3498 53.5394)" class="st2" width="15.3" height="15.3"/>
<rect x="63.2" y="30.2" transform="matrix(0.8172 -0.5763 0.5763 0.8172 -10.1655 50.2754)" class="st1" width="21.9" height="21.9"/>
<rect x="120.9" y="31.6" transform="matrix(0.6654 -0.7465 0.7465 0.6654 11.2063 115.7229)" class="st3" width="27.6" height="27.6"/>
<rect x="7.4" y="126.8" transform="matrix(0.9399 -0.3414 0.3414 0.9399 -46.7411 15.7036)" class="st4" width="27.6" height="27.6"/>
<rect x="120.9" y="114.6" transform="matrix(0.9399 -0.3414 0.3414 0.9399 -35.7469 53.6991)" class="st0" width="27.6" height="27.6"/>
<path class="st4" d="M60.1,64.8h36.9l0,0v55.9l0,0H41.2l0,0V83.7C41.2,73.2,49.7,64.8,60.1,64.8z"/>
<rect x="87.4" y="91" transform="matrix(0.4532 -0.8914 0.8914 0.4532 -37.2385 143.9949)" class="st2" width="22.7" height="22.7"/>
<path class="st3" d="M215.4-227.9c-4.2,0-8.4-0.7-12.3-2.2c-3.7-1.4-7-3.5-9.8-6.3c-2.8-2.7-5-5.9-6.5-9.4c-3.1-7.6-3.1-16,0-23.6
	c1.5-3.5,3.7-6.7,6.5-9.4c2.8-2.7,6.1-4.8,9.8-6.3c3.9-1.5,8.1-2.3,12.4-2.2c4.2,0,8.4,0.7,12.3,2.2c3.6,1.4,7,3.5,9.8,6.2
	c2.8,2.7,5,5.9,6.4,9.5c3,7.6,3,16.1,0,23.7c-1.5,3.5-3.7,6.7-6.4,9.4c-2.8,2.7-6.1,4.8-9.8,6.2
	C223.8-228.6,219.6-227.9,215.4-227.9z M215.2-235.3c3.1,0,6.1-0.5,9-1.7c2.7-1.1,5.1-2.7,7.1-4.7s3.6-4.4,4.7-7.1
	c1.2-2.8,1.7-5.8,1.7-8.9c0.1-6-2.2-11.7-6.4-15.9c-2-2-4.5-3.7-7.1-4.7c-2.9-1.1-5.9-1.7-9-1.7s-6.1,0.5-8.9,1.7
	c-2.7,1.1-5.1,2.7-7.2,4.7c-2,2-3.7,4.4-4.8,7.1c-1.2,2.8-1.7,5.8-1.7,8.8s0.5,6.1,1.7,8.9c1.1,2.7,2.7,5.1,4.8,7.1s4.5,3.6,7.2,4.7
	C209.1-235.8,212.2-235.3,215.2-235.3L215.2-235.3z"/>
<path class="st3" d="M258.9-228.6v-58.1h26c6.7,0,11.8,1.3,15.4,4c3.5,2.5,5.5,6.7,5.4,11c0.1,2.8-0.6,5.6-2.1,8
	c-1.4,2.2-3.4,3.9-5.7,5c-2.4,1.2-5,1.8-7.7,1.7l1.5-2.5c3-0.1,6,0.5,8.8,1.7c2.5,1.1,4.6,2.9,6.1,5.1c1.6,2.5,2.3,5.4,2.2,8.3
	c0.2,4.6-1.9,8.9-5.6,11.6s-9.3,4.1-16.6,4.1h-27.7V-228.6z M267.1-235.3h19.1c4.6,0,8.1-0.8,10.5-2.3s3.7-4,3.6-7.3
	c0-3.4-1.2-5.8-3.6-7.4c-2.4-1.5-5.9-2.3-10.5-2.3h-19.9v-6.7h17.8c4.2,0,7.5-0.8,9.8-2.3c3.8-2.9,4.6-8.4,1.7-12.2
	c-0.5-0.7-1.1-1.2-1.7-1.7c-2.3-1.6-5.6-2.3-9.8-2.3h-17V-235.3z"/>
<path class="st3" d="M329.1-227.9c-3.3,0-6.6-0.7-9.6-2.2c-2.9-1.4-5.5-3.5-7.3-6.2l4.8-5.6c1.4,2.1,3.3,3.8,5.4,5.1
	c2,1.2,4.3,1.8,6.7,1.8c6.7,0,10-3.9,10-11.8v-32.7h-21v-7.2h29.2v39.4c0,6.5-1.5,11.3-4.6,14.5
	C339.6-229.5,335.1-227.9,329.1-227.9z"/>
<path class="st3" d="M372.5-235.8h33.9v7.2h-42.2v-58.1h41v7.2h-32.7V-235.8z M371.8-261.6h29.9v7.1h-29.9V-261.6z"/>
<path class="st3" d="M445.8-227.9c-4.2,0-8.3-0.7-12.2-2.2c-3.6-1.4-6.9-3.5-9.7-6.2c-2.7-2.7-4.9-5.9-6.4-9.4
	c-3.1-7.6-3.1-16.1,0-23.7c3.1-7.2,8.9-12.8,16.2-15.6c8-3,16.7-2.9,24.7,0.1c3.7,1.5,7,3.8,9.7,6.8l-5.4,5.2
	c-2.1-2.2-4.6-4-7.5-5.2c-2.8-1.1-5.8-1.7-8.9-1.7s-6.2,0.5-9.1,1.7c-2.7,1-5.2,2.6-7.3,4.6c-2.1,2-3.7,4.4-4.8,7.1
	c-2.3,5.7-2.3,12.1,0,17.8c1.1,2.7,2.7,5.1,4.8,7.1c2.1,2,4.6,3.6,7.3,4.6c2.9,1.1,6,1.7,9.1,1.7c3,0,6.1-0.6,8.9-1.7
	c2.8-1.2,5.4-3,7.5-5.3l5.4,5.2c-2.7,3-6,5.3-9.7,6.8C454.2-228.7,450-227.9,445.8-227.9z"/>
<path class="st3" d="M490.6-228.6v-50.9h-19.9v-7.2h48v7.2H499v50.9H490.6z"/>
<path class="st3" d="M527.8-228.6v-58.1h8.3v58.1H527.8z"/>
<path class="st3" d="M561.8-228.6h-8.3v-58.1h41v7.2h-32.7V-228.6z M561-259.2h30v7.1h-30V-259.2z"/>
<path class="st3" d="M211.8-149c-3.8,0-7.6-0.6-11.2-2c-6.6-2.6-12-7.7-14.8-14.2c-2.8-6.9-2.8-14.7,0-21.6c1.4-3.2,3.4-6.1,5.9-8.6
	c2.6-2.5,5.6-4.4,8.9-5.7c7.4-2.7,15.6-2.7,23,0.2c3.5,1.4,6.6,3.7,9,6.6l-6.3,5.9c-1.8-2-4-3.5-6.5-4.6c-2.4-1-5-1.6-7.6-1.5
	c-2.6,0-5.1,0.4-7.5,1.4c-2.2,0.9-4.2,2.2-5.9,3.8c-1.7,1.7-3,3.7-3.9,5.9c-1.9,4.8-1.9,10.1,0,14.9c0.9,2.2,2.2,4.2,3.9,5.9
	s3.7,3,5.9,3.8c2.4,0.9,5,1.4,7.5,1.4c2.6,0,5.2-0.5,7.6-1.5c2.5-1.1,4.7-2.7,6.5-4.7l6.3,5.9c-2.4,2.9-5.5,5.1-9,6.6
	C219.9-149.7,215.9-149,211.8-149z"/>
<path class="st3" d="M251.9-149.8h-9.8v-52.6h9.8V-149.8z M279.8-172.3h-28.7v-8.3h28.7V-172.3z M279-202.3h9.7v52.6H279V-202.3z"/>
<path class="st3" d="M327.5-149c-3.9,0-7.7-0.6-11.3-2c-3.4-1.3-6.4-3.2-9-5.7c-2.5-2.4-4.6-5.4-5.9-8.6c-2.8-6.9-2.8-14.6,0-21.5
	c1.4-3.2,3.4-6.1,5.9-8.6c2.6-2.5,5.7-4.4,9-5.7c3.6-1.4,7.5-2,11.3-2s7.7,0.6,11.3,2c3.3,1.3,6.4,3.2,9,5.6
	c2.5,2.4,4.5,5.4,5.9,8.6c1.4,3.4,2.1,7.1,2.1,10.8s-0.7,7.4-2.1,10.8c-2.8,6.6-8.2,11.8-14.9,14.3C335.2-149.6,331.4-149,327.5-149
	z M327.5-157.6c2.5,0,5-0.4,7.3-1.4c2.2-0.9,4.2-2.2,5.8-3.8c1.7-1.7,3-3.7,3.9-5.9c0.9-2.4,1.4-4.9,1.4-7.4s-0.4-5.1-1.4-7.4
	c-0.9-2.2-2.2-4.2-3.9-5.9c-1.7-1.7-3.7-3-5.9-3.8c-2.3-0.9-4.8-1.4-7.3-1.4s-5,0.4-7.4,1.4c-2.2,0.9-4.2,2.2-5.9,3.9
	c-7.2,7.4-7.2,19.1,0,26.5c1.7,1.7,3.7,3,5.9,3.9C322.5-158,325-157.5,327.5-157.6L327.5-157.6z M313.1-206.6l10.1-10.3h8.4
	l10.1,10.2H334l-10.3-8.6h7.2l-10.2,8.6L313.1-206.6z"/>
<path class="st3" d="M366-149.8v-52.6h8l23,38.4h-4.2l22.6-38.4h8l0.2,52.6h-9.4v-38.1h1.9L397-155.8h-4.4l-19.5-32.1h2.2v38.1H366z
	"/>
<path class="st3" d="M430.4-149.8l23.7-52.6h9.6l23.7,52.6h-10.3l-20.2-47.4h3.9l-20.4,47.4H430.4z M441.2-161.9l2.7-7.7h28.3
	l2.6,7.7H441.2z"/>
<path class="st3" d="M517.8-149c-3.9,0-7.7-0.6-11.3-2c-3.3-1.3-6.4-3.2-9-5.7c-2.5-2.4-4.5-5.3-5.9-8.6c-2.8-6.9-2.8-14.7,0-21.6
	c1.4-3.2,3.4-6.1,6-8.6s5.7-4.4,9-5.7c7.6-2.7,15.9-2.6,23.4,0.2c3.5,1.4,6.5,3.6,9,6.4l-6.2,6c-3.8-3.9-9-6.1-14.5-6
	c-2.6,0-5.2,0.4-7.7,1.4c-4.5,1.7-8.2,5.2-10,9.7c-1.9,4.8-1.9,10.1,0,14.8c0.9,2.2,2.3,4.2,4,5.9s3.8,3,6,3.8
	c2.4,0.9,5,1.4,7.7,1.4c2.6,0,5.1-0.4,7.5-1.2c2.6-0.9,4.9-2.3,6.9-4.2l5.5,7.3c-2.8,2.3-6,4-9.5,5C525.3-149.6,521.5-149,517.8-149
	z M529.2-157v-19.5h9.2v20.9L529.2-157z"/>
<path class="st3" d="M561-158h29.7v8.3h-39.5v-52.6h38.4v8.3h-28.6L561-158L561-158z M560.2-180.5h26.1v8h-26.1V-180.5z"/>
<image style="overflow:visible;" width="1500" height="300" xlink:href="banner_100.jpg"  transform="matrix(1 0 0 1 -671.45 205)">
</image>
<image style="overflow:visible;" width="253" height="292" xlink:href="A0502E62.jpg"  transform="matrix(0.4654 0 0 0.4654 -21.9812 -239.3396)">
</image>
<path class="st3" d="M220.1,26.9c4.8,5.5,7.2,12.8,7.2,22c0,9.2-2.4,16.5-7.3,22c-4.8,5.5-11.4,8.3-19.6,8.3
	c-8.2,0-14.7-2.8-19.6-8.3c-4.9-5.5-7.4-12.8-7.4-22c0-9.1,2.4-16.4,7.3-21.9c4.9-5.5,11.4-8.3,19.6-8.3
	C208.7,18.7,215.3,21.4,220.1,26.9z M187.5,32.9c-3.1,3.9-4.7,9.2-4.7,16c0,6.7,1.6,12.1,4.8,16c3.2,3.9,7.5,5.9,12.8,5.9
	c5.5,0,9.8-1.9,12.9-5.8c3.1-3.9,4.6-9.3,4.6-16.1c0-6.8-1.6-12.1-4.7-16c-3.1-3.9-7.4-5.8-12.9-5.8C194.9,27,190.6,29,187.5,32.9z"
	/>
<path class="st3" d="M246.1,78.4h-8.6V16.9h8.6V41c3.1-4.9,7.6-7.3,13.3-7.3c5.6,0,10.1,2.1,13.7,6.3c3.5,4.2,5.3,9.7,5.3,16.6
	c0,6.2-1.7,11.5-5,15.9c-3.4,4.4-8,6.6-13.8,6.6c-5.9,0-10.3-2.4-13.4-7.3V78.4z M246.1,56.1c0,5.2,1.2,9.1,3.5,11.7
	c2.3,2.6,5.2,3.8,8.5,3.8c3.2,0,6-1.4,8.2-4.1c2.2-2.8,3.3-6.3,3.3-10.7c0-5-1.1-8.8-3.3-11.5c-2.2-2.7-5-4-8.4-4
	c-3,0-5.7,1.2-8.1,3.7C247.3,47.3,246.1,51,246.1,56.1z"/>
<path class="st3" d="M297,79c0,3.9-1.1,7-3.3,9.2c-2.2,2.2-5.3,3.3-9.3,3.3c-1.9,0-4-0.4-6.4-1.2v-6.9c1.9,0.9,3.7,1.3,5.6,1.3
	c3.2,0,4.8-2,4.8-5.9V33.4h8.5V79z M298.1,20.6c0,1.4-0.5,2.6-1.6,3.6s-2.3,1.5-3.8,1.5c-1.5,0-2.7-0.5-3.7-1.4
	c-1-1-1.6-2.2-1.6-3.6c0-1.4,0.5-2.6,1.5-3.6c1-1,2.3-1.5,3.8-1.5c1.5,0,2.8,0.5,3.8,1.5C297.5,17.9,298.1,19.1,298.1,20.6z"/>
<path class="st3" d="M341.9,76.1c-3.2,1.9-7.5,2.8-12.9,2.8c-6.8,0-12.3-2.1-16.4-6.2c-4.1-4.1-6.1-9.5-6.1-16.2
	c0-7.1,1.9-12.6,5.6-16.7c3.7-4,8.4-6,14.2-6c5.6,0,10.1,1.8,13.4,5.3c3.3,3.5,5,8.6,5,15.2c0,1.8-0.2,3.7-0.5,5.7h-29
	c0.6,3.8,2.2,6.8,4.9,8.8c2.7,2,6,3,10.1,3c4.7,0,8.6-1.1,11.7-3.3V76.1z M326.5,40.8c-2.9,0-5.4,1.1-7.5,3.2
	c-2.1,2.1-3.4,5.2-3.9,9.2h21.3v-1.6c-0.1-3.3-1-5.9-2.7-7.9C332.1,41.8,329.7,40.8,326.5,40.8z"/>
<path class="st3" d="M385.9,76.7c-2.8,1.7-6.5,2.6-10.9,2.6c-6.9,0-12.4-2.2-16.5-6.5c-4.1-4.4-6.2-9.8-6.2-16.3
	c0-6.3,2.1-11.7,6.2-16.2c4.1-4.5,9.8-6.7,16.8-6.7c3.8,0,7.3,0.8,10.5,2.4v7.8c-2.8-1.8-6.1-2.7-9.7-2.7c-4.6,0-8.3,1.5-11,4.4
	c-2.8,2.9-4.1,6.6-4.1,11.1c0.1,4.5,1.5,8.1,4.1,11c2.6,2.9,6.3,4.3,11,4.3c3.5,0,6.7-1,9.7-2.9V76.7z"/>
<path class="st3" d="M418.9,77.3c-1.9,1-4.3,1.6-7,1.6c-9.1,0-13.7-4.6-13.7-13.8V40.9h-6.9v-6.6h6.9V23.5h8.6v10.8h11.6v6.6h-11.6
	v24.3c0,4.2,2,6.4,6.1,6.4c2.4,0,4.4-0.6,6-1.9V77.3z"/>
<path class="st3" d="M438.3,20.8c0,1.5-0.5,2.7-1.6,3.7s-2.3,1.6-3.8,1.6c-1.5,0-2.8-0.5-3.8-1.5c-1-1-1.5-2.3-1.5-3.8
	c0-1.5,0.5-2.8,1.5-3.8c1-1,2.3-1.6,3.8-1.6c1.5,0,2.8,0.5,3.8,1.6S438.3,19.3,438.3,20.8z M437.2,78.4h-8.6V34.3h8.6V78.4z"/>
<path class="st3" d="M471.1,40.9h-9.3v37.5h-8.5V40.9h-7v-6.6h7v-3.4c0-4.6,1.2-8.2,3.7-10.8c2.5-2.6,5.9-4,10.4-4
	c1.6,0,3.3,0.2,5,0.7v7.5c-1.3-0.6-2.7-0.9-4.2-0.9c-4.2,0-6.4,2.5-6.4,7.6v3.3h9.3V40.9z"/>
<path class="st3" d="M218.3,154c-3.6,2.4-8.6,3.6-15,3.6c-8.8,0-15.9-2.7-21.5-8.2c-5.6-5.5-8.4-12.8-8.4-21.9
	c0-8.9,2.8-16.1,8.4-21.7c5.6-5.6,12.7-8.4,21.3-8.4c6.3,0,11.3,1.1,15.1,3.2v8.8c-2.6-1.4-4.9-2.4-6.9-2.9
	c-2.1-0.6-4.7-0.8-7.9-0.8c-5.9,0-10.7,2-14.7,6c-3.9,4-5.9,9.2-5.9,15.8c0,6.7,1.9,12,5.8,15.9c3.9,3.9,9,5.9,15.4,5.9
	c5.6,0,10.4-1.4,14.2-4.4V154z"/>
<path class="st3" d="M264.6,156.8H256V129c0-3-0.8-5.4-2.3-7c-1.5-1.7-3.6-2.5-6-2.5c-2.9,0-5.5,1.1-7.7,3.3
	c-2.2,2.2-3.4,5.6-3.4,10.1v23.9h-8.5V95.3h8.5v25c2.5-5.5,7-8.2,13.7-8.2c4.3,0,7.7,1.3,10.4,4c2.6,2.7,3.9,6.4,3.9,11.1V156.8z"/>
<path class="st3" d="M310.1,118.5c3.7,4.3,5.5,9.7,5.5,16.3s-1.9,12.1-5.6,16.4c-3.7,4.3-8.9,6.4-15.4,6.4c-6.5,0-11.6-2.1-15.3-6.4
	c-3.7-4.2-5.6-9.6-5.6-16.1c0-6.6,1.9-12.1,5.7-16.5c3.8-4.4,8.9-6.6,15.1-6.6C301.2,112.1,306.4,114.2,310.1,118.5z M282.5,134.9
	c0,4.4,1.1,8,3.2,11c2.1,3,5.1,4.5,8.8,4.5c3.9,0,6.9-1.5,9-4.4c2.1-2.9,3.1-6.6,3.1-11.1c0-4.6-1-8.3-3-11.3c-2-2.9-5-4.4-9.2-4.4
	c-3.8,0-6.7,1.5-8.8,4.5C283.5,126.8,282.5,130.5,282.5,134.9z"/>
<path class="st0" d="M287.6,109.4h-8.4l9.3-11.1c1.6-1.9,3.9-3,6.4-3l0,0c2.5,0,4.9,1.1,6.4,3l9.2,11.1h-8.4l-7.3-8.9L287.6,109.4z"
	/>
<path class="st3" d="M385.8,156.8h-8.5V129c0-6.3-2.6-9.5-7.7-9.5c-2.6,0-4.8,1.1-6.8,3.4c-2,2.3-3,5.6-3,10v23.9h-8.5V129
	c0-6.3-2.6-9.5-7.7-9.5c-2.5,0-4.8,1.1-6.8,3.4c-2,2.3-3,5.6-3,10v23.9h-8.5v-44.1h8.5v7c2.5-5.1,6.6-7.7,12.4-7.7
	c6.6,0,10.8,2.8,12.7,8.5c1.2-2.7,3-4.8,5.3-6.3c2.3-1.5,4.9-2.2,7.8-2.2c4.5,0,8,1.3,10.3,4c2.3,2.7,3.5,6.4,3.5,11.1V156.8z"/>
<path class="st3" d="M420.9,151.6c-2.3,3.7-6.2,5.6-11.9,5.6c-4.2,0-7.5-1.2-10.1-3.6c-2.5-2.4-3.8-5.5-3.8-9.2
	c0-4.2,1.6-7.5,4.8-9.9c3.2-2.3,7.7-3.5,13.4-3.5h7.3v-2.5c0-3-0.7-5.3-2.2-6.8c-1.5-1.5-3.9-2.3-7.2-2.3c-4.7,0-9,1.3-12.8,3.9V115
	c3.4-2,7.9-3,13.6-3c11.5,0,17.3,5.6,17.3,16.8v28h-8.4V151.6z M411.6,150.5c2.8,0,5-0.8,6.6-2.3c1.6-1.5,2.4-3.6,2.4-6v-5H414
	c-3.2,0-5.7,0.6-7.4,1.9c-1.7,1.3-2.5,2.9-2.5,4.9c0,2,0.6,3.6,1.9,4.8C407.3,149.9,409.2,150.5,411.6,150.5z"/>
<path class="st3" d="M477.9,153.1c0,6.8-1.9,11.9-5.8,15.4c-3.9,3.5-8.8,5.2-14.8,5.2c-5.7,0-10.5-1-14.4-2.9v-8.6
	c3.7,2.4,8.2,3.7,13.5,3.7c8.6,0,13-4.3,13-12.8v-4.5c-2.8,4.8-7.1,7.1-12.8,7.1c-5,0-9.3-1.8-12.8-5.5c-3.5-3.7-5.3-8.9-5.3-15.6
	c0-6.5,1.7-11.8,5-16.1c3.3-4.2,7.7-6.3,13.1-6.3c5.9,0,10.1,2.5,12.8,7.5v-6.9h8.5V153.1z M447.5,134.3c0,4.6,1.1,8.1,3.2,10.4
	c2.1,2.4,4.6,3.6,7.5,3.6c3,0,5.6-1.2,7.9-3.5s3.4-5.6,3.4-9.9c0-5.2-1.1-9.1-3.2-11.6c-2.1-2.5-4.7-3.7-7.7-3.7
	c-3.4,0-6.1,1.3-8.1,4C448.5,126.3,447.5,129.9,447.5,134.3z"/>
<path class="st3" d="M522.3,154.5c-3.2,1.9-7.5,2.8-12.9,2.8c-6.8,0-12.3-2.1-16.4-6.2c-4.1-4.1-6.1-9.5-6.1-16.2
	c0-7.1,1.9-12.6,5.6-16.7c3.7-4,8.4-6,14.2-6c5.6,0,10.1,1.8,13.4,5.3c3.3,3.5,5,8.6,5,15.2c0,1.8-0.2,3.7-0.5,5.7h-29
	c0.6,3.8,2.2,6.8,4.9,8.8c2.7,2,6,3,10.1,3c4.7,0,8.6-1.1,11.7-3.3V154.5z M506.9,119.2c-2.9,0-5.4,1.1-7.5,3.2
	c-2.1,2.1-3.4,5.2-3.9,9.2h21.3V130c-0.1-3.3-1-5.9-2.7-7.9C512.5,120.2,510.1,119.2,506.9,119.2z"/>
<text transform="matrix(1 0 0 1 -279.9586 -180.5138)" class="st3" style="font-family:'HindGuntur-Medium'; font-size:87.0254px;">Objectif</text>
<text transform="matrix(1 0 0 1 -279.9586 -102.1315)" class="st3" style="font-family:'HindGuntur-Medium'; font-size:87.0254px;">Chômage</text>
</svg>
